<svg xmlns="http://www.w3.org/2000/svg" xmlns:xlink="http://www.w3.org/1999/xlink" width="800" zoomAndPan="magnify" viewBox="0 0 600 449.999984" height="600" preserveAspectRatio="xMidYMid meet" version="1.0"><defs><clipPath id="0adf2f25d8"><path d="M 197 33 L 414 33 L 414 417 L 197 417 Z M 197 33 " clip-rule="nonzero"/></clipPath><clipPath id="80583efeed"><path d="M 159.304688 375.691406 L 241.253906 25.140625 L 451.582031 74.308594 L 369.636719 424.859375 Z M 159.304688 375.691406 " clip-rule="nonzero"/></clipPath><clipPath id="356c43b1e1"><path d="M 159.304688 375.691406 L 241.253906 25.140625 L 451.582031 74.308594 L 369.636719 424.859375 Z M 159.304688 375.691406 " clip-rule="nonzero"/></clipPath><clipPath id="bb80eabc97"><path d="M 159.304688 375.691406 L 241.253906 25.140625 L 451.582031 74.308594 L 369.636719 424.859375 Z M 159.304688 375.691406 " clip-rule="nonzero"/></clipPath><clipPath id="c004fe95d0"><path d="M 200.28125 200.417969 C 189.351562 247.15625 205.894531 281.832031 249.902344 304.441406 C 230.628906 281.453125 226.644531 258.957031 237.953125 236.949219 C 244.402344 224.398438 256.304688 217.128906 269.476562 209.082031 C 290.9375 195.972656 315.777344 180.804688 325.929688 137.363281 C 336.855469 90.621094 320.316406 55.945312 276.308594 33.335938 C 295.582031 56.328125 299.5625 78.824219 288.257812 100.828125 C 281.808594 113.382812 269.90625 120.648438 256.734375 128.695312 C 235.273438 141.804688 210.433594 156.972656 200.28125 200.417969 Z M 284.957031 312.636719 C 274.03125 359.375 290.574219 394.054688 334.582031 416.664062 C 315.308594 393.671875 311.324219 371.175781 322.628906 349.171875 C 329.082031 336.617188 340.984375 329.347656 354.15625 321.300781 C 375.617188 308.195312 400.453125 293.027344 410.609375 249.582031 C 421.535156 202.84375 404.992188 168.167969 360.984375 145.558594 C 380.257812 168.546875 384.242188 191.042969 372.9375 213.050781 C 366.488281 225.601562 354.585938 232.871094 341.410156 240.917969 C 319.949219 254.027344 295.113281 269.195312 284.957031 312.636719 Z M 284.957031 312.636719 " clip-rule="nonzero"/></clipPath><linearGradient x1="-32.615125" gradientTransform="matrix(0.546306, -2.336996, 2.336996, 0.546306, 159.306539, 375.690871)" y1="12.397239" x2="157.130628" gradientUnits="userSpaceOnUse" y2="121.80178" id="0f8ee71899"><stop stop-opacity="1" stop-color="rgb(13.299561%, 59.599304%, 74.099731%)" offset="0"/><stop stop-opacity="1" stop-color="rgb(13.299561%, 59.599304%, 74.099731%)" offset="0.125"/><stop stop-opacity="1" stop-color="rgb(13.262939%, 59.713745%, 74.084473%)" offset="0.15625"/><stop stop-opacity="1" stop-color="rgb(13.182068%, 59.968567%, 74.052429%)" offset="0.164063"/><stop stop-opacity="1" stop-color="rgb(13.092041%, 60.250854%, 74.017334%)" offset="0.171875"/><stop stop-opacity="1" stop-color="rgb(13.00354%, 60.534668%, 73.980713%)" offset="0.179688"/><stop stop-opacity="1" stop-color="rgb(12.913513%, 60.816956%, 73.945618%)" offset="0.1875"/><stop stop-opacity="1" stop-color="rgb(12.825012%, 61.099243%, 73.910522%)" offset="0.195312"/><stop stop-opacity="1" stop-color="rgb(12.734985%, 61.381531%, 73.875427%)" offset="0.203125"/><stop stop-opacity="1" stop-color="rgb(12.646484%, 61.663818%, 73.838806%)" offset="0.210938"/><stop stop-opacity="1" stop-color="rgb(12.557983%, 61.947632%, 73.803711%)" offset="0.21875"/><stop stop-opacity="1" stop-color="rgb(12.467957%, 62.229919%, 73.768616%)" offset="0.226562"/><stop stop-opacity="1" stop-color="rgb(12.379456%, 62.512207%, 73.733521%)" offset="0.234375"/><stop stop-opacity="1" stop-color="rgb(12.289429%, 62.794495%, 73.696899%)" offset="0.242188"/><stop stop-opacity="1" stop-color="rgb(12.200928%, 63.078308%, 73.661804%)" offset="0.25"/><stop stop-opacity="1" stop-color="rgb(12.110901%, 63.360596%, 73.626709%)" offset="0.257812"/><stop stop-opacity="1" stop-color="rgb(12.0224%, 63.642883%, 73.591614%)" offset="0.265625"/><stop stop-opacity="1" stop-color="rgb(11.932373%, 63.925171%, 73.554993%)" offset="0.273438"/><stop stop-opacity="1" stop-color="rgb(11.843872%, 64.207458%, 73.519897%)" offset="0.28125"/><stop stop-opacity="1" stop-color="rgb(11.753845%, 64.491272%, 73.484802%)" offset="0.289062"/><stop stop-opacity="1" stop-color="rgb(11.665344%, 64.77356%, 73.449707%)" offset="0.296875"/><stop stop-opacity="1" stop-color="rgb(11.575317%, 65.055847%, 73.413086%)" offset="0.297748"/><stop stop-opacity="1" stop-color="rgb(11.531067%, 65.197754%, 73.396301%)" offset="0.304688"/><stop stop-opacity="1" stop-color="rgb(11.486816%, 65.338135%, 73.377991%)" offset="0.3125"/><stop stop-opacity="1" stop-color="rgb(11.39679%, 65.621948%, 73.342896%)" offset="0.320312"/><stop stop-opacity="1" stop-color="rgb(11.308289%, 65.904236%, 73.3078%)" offset="0.328125"/><stop stop-opacity="1" stop-color="rgb(11.218262%, 66.186523%, 73.271179%)" offset="0.335937"/><stop stop-opacity="1" stop-color="rgb(11.129761%, 66.468811%, 73.236084%)" offset="0.34375"/><stop stop-opacity="1" stop-color="rgb(11.039734%, 66.752625%, 73.200989%)" offset="0.351562"/><stop stop-opacity="1" stop-color="rgb(10.951233%, 67.034912%, 73.165894%)" offset="0.359375"/><stop stop-opacity="1" stop-color="rgb(10.861206%, 67.3172%, 73.129272%)" offset="0.367188"/><stop stop-opacity="1" stop-color="rgb(10.772705%, 67.599487%, 73.094177%)" offset="0.375"/><stop stop-opacity="1" stop-color="rgb(10.682678%, 67.881775%, 73.059082%)" offset="0.382813"/><stop stop-opacity="1" stop-color="rgb(10.594177%, 68.165588%, 73.023987%)" offset="0.390625"/><stop stop-opacity="1" stop-color="rgb(10.50415%, 68.447876%, 72.987366%)" offset="0.398438"/><stop stop-opacity="1" stop-color="rgb(10.415649%, 68.730164%, 72.952271%)" offset="0.40625"/><stop stop-opacity="1" stop-color="rgb(10.325623%, 69.012451%, 72.917175%)" offset="0.414062"/><stop stop-opacity="1" stop-color="rgb(10.237122%, 69.296265%, 72.88208%)" offset="0.421875"/><stop stop-opacity="1" stop-color="rgb(10.147095%, 69.578552%, 72.845459%)" offset="0.429688"/><stop stop-opacity="1" stop-color="rgb(10.058594%, 69.86084%, 72.810364%)" offset="0.4375"/><stop stop-opacity="1" stop-color="rgb(9.968567%, 70.143127%, 72.775269%)" offset="0.445313"/><stop stop-opacity="1" stop-color="rgb(9.880066%, 70.425415%, 72.740173%)" offset="0.453125"/><stop stop-opacity="1" stop-color="rgb(9.790039%, 70.709229%, 72.703552%)" offset="0.460938"/><stop stop-opacity="1" stop-color="rgb(9.701538%, 70.991516%, 72.668457%)" offset="0.46875"/><stop stop-opacity="1" stop-color="rgb(9.611511%, 71.273804%, 72.633362%)" offset="0.476562"/><stop stop-opacity="1" stop-color="rgb(9.52301%, 71.556091%, 72.598267%)" offset="0.484375"/><stop stop-opacity="1" stop-color="rgb(9.432983%, 71.839905%, 72.561646%)" offset="0.492187"/><stop stop-opacity="1" stop-color="rgb(9.344482%, 72.122192%, 72.52655%)" offset="0.5"/><stop stop-opacity="1" stop-color="rgb(9.254456%, 72.40448%, 72.491455%)" offset="0.507812"/><stop stop-opacity="1" stop-color="rgb(9.165955%, 72.686768%, 72.45636%)" offset="0.515625"/><stop stop-opacity="1" stop-color="rgb(9.075928%, 72.970581%, 72.419739%)" offset="0.523438"/><stop stop-opacity="1" stop-color="rgb(8.987427%, 73.252869%, 72.384644%)" offset="0.53125"/><stop stop-opacity="1" stop-color="rgb(8.8974%, 73.535156%, 72.349548%)" offset="0.539062"/><stop stop-opacity="1" stop-color="rgb(8.808899%, 73.817444%, 72.314453%)" offset="0.546875"/><stop stop-opacity="1" stop-color="rgb(8.718872%, 74.099731%, 72.279358%)" offset="0.554688"/><stop stop-opacity="1" stop-color="rgb(8.630371%, 74.383545%, 72.242737%)" offset="0.5625"/><stop stop-opacity="1" stop-color="rgb(8.540344%, 74.665833%, 72.207642%)" offset="0.570312"/><stop stop-opacity="1" stop-color="rgb(8.451843%, 74.94812%, 72.172546%)" offset="0.578125"/><stop stop-opacity="1" stop-color="rgb(8.361816%, 75.230408%, 72.137451%)" offset="0.585937"/><stop stop-opacity="1" stop-color="rgb(8.273315%, 75.514221%, 72.10083%)" offset="0.59375"/><stop stop-opacity="1" stop-color="rgb(8.183289%, 75.796509%, 72.065735%)" offset="0.601562"/><stop stop-opacity="1" stop-color="rgb(8.094788%, 76.078796%, 72.03064%)" offset="0.609375"/><stop stop-opacity="1" stop-color="rgb(8.004761%, 76.361084%, 71.995544%)" offset="0.617188"/><stop stop-opacity="1" stop-color="rgb(7.91626%, 76.643372%, 71.958923%)" offset="0.625"/><stop stop-opacity="1" stop-color="rgb(7.826233%, 76.927185%, 71.923828%)" offset="0.632812"/><stop stop-opacity="1" stop-color="rgb(7.737732%, 77.209473%, 71.888733%)" offset="0.640625"/><stop stop-opacity="1" stop-color="rgb(7.647705%, 77.49176%, 71.853638%)" offset="0.648438"/><stop stop-opacity="1" stop-color="rgb(7.559204%, 77.774048%, 71.817017%)" offset="0.65625"/><stop stop-opacity="1" stop-color="rgb(7.469177%, 78.057861%, 71.781921%)" offset="0.664062"/><stop stop-opacity="1" stop-color="rgb(7.380676%, 78.340149%, 71.746826%)" offset="0.671875"/><stop stop-opacity="1" stop-color="rgb(7.290649%, 78.622437%, 71.711731%)" offset="0.679687"/><stop stop-opacity="1" stop-color="rgb(7.202148%, 78.904724%, 71.67511%)" offset="0.6875"/><stop stop-opacity="1" stop-color="rgb(7.112122%, 79.188538%, 71.640015%)" offset="0.695312"/><stop stop-opacity="1" stop-color="rgb(7.023621%, 79.470825%, 71.604919%)" offset="0.702252"/><stop stop-opacity="1" stop-color="rgb(6.97937%, 79.612732%, 71.588135%)" offset="0.703125"/><stop stop-opacity="1" stop-color="rgb(6.933594%, 79.753113%, 71.569824%)" offset="0.710938"/><stop stop-opacity="1" stop-color="rgb(6.845093%, 80.0354%, 71.533203%)" offset="0.71875"/><stop stop-opacity="1" stop-color="rgb(6.755066%, 80.317688%, 71.498108%)" offset="0.726562"/><stop stop-opacity="1" stop-color="rgb(6.666565%, 80.601501%, 71.463013%)" offset="0.734375"/><stop stop-opacity="1" stop-color="rgb(6.576538%, 80.883789%, 71.427917%)" offset="0.742188"/><stop stop-opacity="1" stop-color="rgb(6.488037%, 81.166077%, 71.391296%)" offset="0.75"/><stop stop-opacity="1" stop-color="rgb(6.399536%, 81.448364%, 71.356201%)" offset="0.757812"/><stop stop-opacity="1" stop-color="rgb(6.309509%, 81.732178%, 71.321106%)" offset="0.765625"/><stop stop-opacity="1" stop-color="rgb(6.221008%, 82.014465%, 71.286011%)" offset="0.773438"/><stop stop-opacity="1" stop-color="rgb(6.130981%, 82.296753%, 71.24939%)" offset="0.78125"/><stop stop-opacity="1" stop-color="rgb(6.04248%, 82.579041%, 71.214294%)" offset="0.789062"/><stop stop-opacity="1" stop-color="rgb(5.952454%, 82.861328%, 71.179199%)" offset="0.796875"/><stop stop-opacity="1" stop-color="rgb(5.863953%, 83.145142%, 71.144104%)" offset="0.804687"/><stop stop-opacity="1" stop-color="rgb(5.773926%, 83.427429%, 71.107483%)" offset="0.8125"/><stop stop-opacity="1" stop-color="rgb(5.685425%, 83.709717%, 71.072388%)" offset="0.820312"/><stop stop-opacity="1" stop-color="rgb(5.595398%, 83.992004%, 71.037292%)" offset="0.828125"/><stop stop-opacity="1" stop-color="rgb(5.525208%, 84.216309%, 71.009827%)" offset="0.84375"/><stop stop-opacity="1" stop-color="rgb(5.499268%, 84.298706%, 70.999146%)" offset="0.875"/><stop stop-opacity="1" stop-color="rgb(5.499268%, 84.298706%, 70.999146%)" offset="1"/></linearGradient><clipPath id="6503fe9737"><path d="M 239 175 L 372 175 L 372 289.957031 L 239 289.957031 Z M 239 175 " clip-rule="nonzero"/></clipPath><clipPath id="483f0778dc"><path d="M 245.035156 193.46875 C 234.394531 211 241.890625 228.058594 251.3125 237.113281 L 306.386719 289.957031 L 360.300781 237.304688 C 369.0625 227.5625 372.421875 217.230469 370.558594 205.726562 C 367.980469 189.808594 354.863281 177.460938 338.664062 175.699219 C 328.726562 174.628906 319.128906 177.441406 311.636719 183.664062 C 309.621094 185.339844 307.816406 187.214844 306.246094 189.25 C 304.382812 186.929688 302.195312 184.8125 299.726562 182.933594 C 291.109375 176.386719 280.144531 173.785156 269.609375 175.808594 C 259.632812 177.734375 250.679688 184.171875 245.035156 193.46875 " clip-rule="nonzero"/></clipPath><clipPath id="842c9843e9"><path d="M 313 254 L 342.140625 254 L 342.140625 274.886719 L 313 274.886719 Z M 313 254 " clip-rule="nonzero"/></clipPath><clipPath id="12a14be0e9"><path d="M 268.640625 254 L 300 254 L 300 274.886719 L 268.640625 274.886719 Z M 268.640625 254 " clip-rule="nonzero"/></clipPath><clipPath id="c22d18787a"><path d="M 268.640625 175.136719 L 342.140625 175.136719 L 342.140625 274.886719 L 268.640625 274.886719 Z M 268.640625 175.136719 " clip-rule="nonzero"/></clipPath></defs><g clip-path="url(#0adf2f25d8)"><g clip-path="url(#80583efeed)"><g clip-path="url(#356c43b1e1)"><g clip-path="url(#bb80eabc97)"><g clip-path="url(#c004fe95d0)"><path fill="url(#0f8ee71899)" d="M 104.386719 396.800781 L 409.503906 468.128906 L 506.5 53.199219 L 201.382812 -18.128906 Z M 104.386719 396.800781 " fill-rule="nonzero"/></g></g></g></g></g><g clip-path="url(#6503fe9737)"><g clip-path="url(#483f0778dc)"><path fill="#5ce1e6" d="M 239.832031 175.136719 L 371.054688 175.136719 L 371.054688 289.957031 L 239.832031 289.957031 Z M 239.832031 175.136719 " fill-opacity="1" fill-rule="nonzero"/></g></g><g clip-path="url(#842c9843e9)"><path fill="#000000" d="M 449.925781 258.46875 C 446.917969 255.457031 442.789062 254.128906 438.660156 254.828125 C 434.464844 255.527344 430.964844 258.046875 429.074219 261.828125 L 409.972656 300.058594 C 408.855469 302.371094 407.316406 304.402344 405.214844 306.570312 C 404.867188 306.992188 404.585938 307.414062 404.238281 307.832031 C 395.28125 300.691406 382.546875 299.429688 371.839844 305.453125 C 364.355469 311.753906 353.859375 317.566406 340.285156 322.886719 C 331.816406 327.578125 326.082031 336.121094 324.890625 345.714844 L 320.203125 383.246094 L 313.066406 383.246094 L 313.066406 417.0625 L 394.160156 417.0625 L 394.160156 383.246094 L 391.503906 383.246094 L 430.054688 339.203125 C 432.925781 335.910156 435.023438 332.128906 436.28125 327.929688 L 453.214844 271.421875 C 454.542969 266.800781 453.285156 261.828125 449.925781 258.46875 Z M 387.375 410.273438 L 319.785156 410.273438 L 319.785156 389.964844 L 387.375 389.964844 Z M 446.707031 269.460938 L 429.773438 325.898438 C 428.796875 329.1875 427.1875 332.128906 424.949219 334.648438 L 382.546875 383.175781 L 327.128906 383.175781 L 331.679688 346.484375 C 332.589844 338.992188 337.066406 332.410156 343.222656 328.910156 C 357.078125 323.515625 368.203125 317.285156 375.757812 310.84375 C 383.59375 306.503906 393.320312 307.480469 400.179688 313.015625 C 389.753906 326.039062 379.398438 335.910156 368.691406 343.121094 L 365.894531 345.011719 L 369.671875 350.613281 L 372.46875 348.722656 C 385.625 339.972656 398.148438 327.4375 410.394531 310.84375 C 412.703125 308.53125 414.59375 305.871094 416.0625 302.929688 L 435.164062 264.699219 C 436.074219 262.878906 437.75 261.621094 439.78125 261.339844 C 441.808594 261.058594 443.769531 261.6875 445.167969 263.089844 C 446.777344 264.839844 447.335938 267.222656 446.707031 269.460938 Z M 446.707031 269.460938 " fill-opacity="1" fill-rule="nonzero"/></g><g clip-path="url(#12a14be0e9)"><path fill="#000000" d="M 287.808594 345.714844 C 286.617188 336.121094 280.878906 327.578125 271.996094 322.675781 C 258.769531 317.496094 248.34375 311.683594 240.296875 305.03125 C 230.082031 299.359375 217.417969 300.621094 208.460938 307.832031 C 208.042969 307.273438 207.621094 306.78125 207.203125 306.222656 C 205.382812 304.402344 203.914062 302.371094 202.792969 300.058594 L 183.691406 261.828125 C 181.804688 258.046875 178.304688 255.457031 174.175781 254.828125 C 169.980469 254.128906 165.851562 255.457031 162.914062 258.46875 C 159.554688 261.828125 158.292969 266.800781 159.625 271.421875 L 176.488281 327.859375 C 177.746094 332.058594 179.84375 335.839844 182.714844 339.132812 L 221.265625 383.246094 L 218.46875 383.246094 L 218.46875 417.0625 L 299.5625 417.0625 L 299.5625 383.246094 L 292.496094 383.246094 Z M 187.820312 334.71875 C 185.582031 332.128906 183.972656 329.1875 182.992188 325.96875 L 165.992188 269.460938 C 165.363281 267.222656 165.921875 264.839844 167.53125 263.230469 C 169 261.757812 170.957031 261.128906 172.988281 261.480469 C 175.015625 261.828125 176.695312 263.019531 177.605469 264.839844 L 196.707031 303.070312 C 198.175781 306.011719 200.066406 308.671875 202.09375 310.632812 C 214.691406 327.578125 227.214844 340.113281 240.367188 348.863281 L 243.167969 350.753906 L 246.945312 345.152344 L 244.148438 343.261719 C 233.441406 336.121094 223.15625 326.316406 212.660156 313.152344 C 219.519531 307.621094 229.171875 306.570312 236.589844 310.5625 C 244.636719 317.355469 255.761719 323.585938 269.265625 328.769531 C 275.84375 332.410156 280.320312 339.0625 281.230469 346.554688 L 285.777344 383.246094 L 230.363281 383.246094 Z M 292.777344 410.273438 L 225.253906 410.273438 L 225.253906 389.964844 L 292.84375 389.964844 L 292.84375 410.273438 Z M 292.777344 410.273438 " fill-opacity="1" fill-rule="nonzero"/></g><g clip-path="url(#c22d18787a)"><path fill="#000000" d="M 391.710938 247.265625 C 415.292969 223.667969 415.292969 185.15625 391.710938 161.558594 C 368.203125 138.035156 329.929688 137.964844 306.347656 161.28125 C 282.699219 137.894531 244.496094 137.964844 220.988281 161.558594 C 197.40625 185.15625 197.40625 223.667969 220.988281 247.265625 L 295.433594 321.835938 C 298.441406 324.847656 302.359375 326.316406 306.347656 326.316406 C 310.335938 326.316406 314.257812 324.847656 317.265625 321.835938 Z M 300.191406 317.074219 L 225.675781 242.503906 C 215.53125 232.351562 209.933594 218.835938 209.933594 204.414062 C 209.933594 189.988281 215.53125 176.476562 225.675781 166.320312 C 236.171875 155.820312 249.953125 150.566406 263.738281 150.566406 C 277.523438 150.566406 291.304688 155.820312 301.800781 166.320312 C 304.320312 168.84375 308.378906 168.84375 310.828125 166.320312 C 331.816406 145.316406 365.964844 145.316406 386.953125 166.320312 C 397.101562 176.476562 402.695312 189.988281 402.695312 204.414062 C 402.695312 218.835938 397.101562 232.351562 386.953125 242.503906 L 312.4375 317.074219 C 309.148438 320.296875 303.480469 320.296875 300.191406 317.074219 Z M 300.191406 317.074219 " fill-opacity="1" fill-rule="nonzero"/></g><path fill="#000000" d="M 319.855469 193.910156 L 292.84375 193.910156 L 292.84375 214.214844 L 272.554688 214.214844 L 272.554688 241.242188 L 292.84375 241.242188 L 292.84375 261.550781 L 319.855469 261.550781 L 319.855469 241.242188 L 340.144531 241.242188 L 340.144531 214.214844 L 319.855469 214.214844 Z M 333.359375 220.9375 L 333.359375 234.453125 L 313.066406 234.453125 L 313.066406 254.757812 L 299.5625 254.757812 L 299.5625 234.453125 L 279.269531 234.453125 L 279.269531 220.9375 L 299.5625 220.9375 L 299.5625 200.632812 L 313.066406 200.632812 L 313.066406 220.9375 Z M 333.359375 220.9375 " fill-opacity="1" fill-rule="nonzero"/></svg>